<svg id="Layer_1" data-name="Layer 1" xmlns="http://www.w3.org/2000/svg" viewBox="0 0 512 512"><defs><style>.cls-1{fill:#fff;}</style></defs><rect x="-1.15" width="512" height="512"/><path class="cls-1" d="M140.67,232.82q-8.16-5.49-19.81-5.49a37.48,37.48,0,0,0-19.39,5,35,35,0,0,0-13.22,13.94q-4.8,9-4.8,21.11a39.17,39.17,0,0,0,4.9,19.7,35.32,35.32,0,0,0,13.57,13.49,40,40,0,0,0,20,4.9,36.48,36.48,0,0,0,19.7-5.62,32.8,32.8,0,0,0,13.19-15.75l-18.64-5.35a15.3,15.3,0,0,1-6,6.92,17.57,17.57,0,0,1-9.39,2.4q-8.7,0-13.19-5.65a21.69,21.69,0,0,1-4.15-10.79h51.94q1.17-13.44-2.74-23.37A32.17,32.17,0,0,0,140.67,232.82Zm-19,10.68q8.15,0,11.75,5,2.35,3.27,3.17,9.29H104a20.9,20.9,0,0,1,3.67-8.47Q112.17,243.5,121.69,243.5Z"/><polygon class="cls-1" points="237.89 229.39 214.87 229.39 189.79 265.02 189.79 204.72 170.88 204.72 170.74 303.39 189.79 303.39 189.79 267.76 215.41 303.39 239.67 303.39 211.17 266.39 237.89 229.39"/><path class="cls-1" d="M269.54,208.83H250.9v20.56H238.3v14.39h12.6V272q0,6.64.14,11.88a22.71,22.71,0,0,0,2.88,10.32,17.55,17.55,0,0,0,8.8,7.84,36.06,36.06,0,0,0,13.16,2.61,72.6,72.6,0,0,0,15-1.27V287.9a60.52,60.52,0,0,1-12,.55q-5.42-.34-7.88-4.25a10.82,10.82,0,0,1-1.41-5.51c-.06-2.31-.1-4.9-.1-7.78V243.78h21.38V229.39H269.54Z"/><path class="cls-1" d="M344.09,229.22a31.26,31.26,0,0,0-6.51,1.16,24.13,24.13,0,0,0-5.83,2.57,20.2,20.2,0,0,0-5.89,5.21,27.5,27.5,0,0,0-2.06,3.15V229.39H307.36v74h18.77V265.57a23.3,23.3,0,0,1,1.17-7.64,16.35,16.35,0,0,1,9-9.9,20.63,20.63,0,0,1,7.37-1.89,19.32,19.32,0,0,1,7.16.65v-17.4A35,35,0,0,0,344.09,229.22Z"/><path class="cls-1" d="M413,266.94A32.81,32.81,0,0,1,411.47,278a15.56,15.56,0,0,1-3.94,6.37,12.79,12.79,0,0,1-5.14,2.92,19.54,19.54,0,0,1-5.14.75q-6,0-9.21-2.67a15.11,15.11,0,0,1-4.7-6.65,28.93,28.93,0,0,1-1.71-7.91q-.27-3.94-.27-6.48V229.39H362.45v41.52c0,1.23.09,3.2.27,5.89a47.17,47.17,0,0,0,1.58,8.94,30.77,30.77,0,0,0,4.35,9.43,23.29,23.29,0,0,0,8.53,7.46q5.47,3,14.18,2.95,10.89,0,18.05-4.73a30.19,30.19,0,0,0,5.93-5.1v7.64h16.45v-74H413Z"/><path class="cls-1" d="M508.52,271.22a19.18,19.18,0,0,0-7.43-7,56.57,56.57,0,0,0-13.53-5.1c-5.76-1.47-10-2.65-12.85-3.57s-4.66-1.8-5.55-2.67a4.32,4.32,0,0,1-1.34-3.22,5.36,5.36,0,0,1,3.12-4.93,15,15,0,0,1,8.26-1.37,15.28,15.28,0,0,1,8.36,2.81,9.25,9.25,0,0,1,3.56,6.51l19.05-3.43a22.66,22.66,0,0,0-5.11-11.65A26.73,26.73,0,0,0,494.2,230a41.23,41.23,0,0,0-15.41-2.68,39.16,39.16,0,0,0-15.59,2.85A23.32,23.32,0,0,0,453,238.26a21.2,21.2,0,0,0-3.63,12.37,18.52,18.52,0,0,0,2.4,9.69,19.29,19.29,0,0,0,7.81,6.89A66.88,66.88,0,0,0,474,272.42c5.34,1.41,9.28,2.56,11.82,3.42s4.17,1.75,4.9,2.64A5.4,5.4,0,0,1,491.8,282a6.31,6.31,0,0,1-2.74,5.45c-1.82,1.3-4.43,2-7.81,2a16.68,16.68,0,0,1-10.17-3,13.37,13.37,0,0,1-5.18-8.15l-19,2.88q1.84,11.58,10.45,17.92t22.57,6.33q14.53,0,22.75-6.51t8.22-17.88A19.53,19.53,0,0,0,508.52,271.22Z"/><path class="cls-1" d="M8.31,202.11h0A9.44,9.44,0,0,1,17,207.87l22.3,52.48,13.32-31.21a9.45,9.45,0,0,1,12.43-5l1,.45A9.44,9.44,0,0,1,71,237L39.88,310.06-.39,215.25A9.45,9.45,0,0,1,8.31,202.11Z"/><circle class="cls-1" cx="71.01" cy="211.96" r="10.02"/></svg>