<svg id="Layer_1" data-name="Layer 1" xmlns="http://www.w3.org/2000/svg" viewBox="0 0 512 512"><defs><style>.cls-1{fill:#b4e8e5;}.cls-2{fill:#49d69e;}</style></defs><path class="cls-1" d="M145.27,337q-8.09-5.43-19.62-5.43a37.13,37.13,0,0,0-19.21,4.92,34.63,34.63,0,0,0-13.1,13.82q-4.75,8.89-4.75,20.9a38.8,38.8,0,0,0,4.85,19.52,35,35,0,0,0,13.44,13.37,39.62,39.62,0,0,0,19.86,4.85,36.15,36.15,0,0,0,19.51-5.56,32.51,32.51,0,0,0,13.07-15.61l-18.47-5.3a15.13,15.13,0,0,1-5.9,6.86,17.47,17.47,0,0,1-9.3,2.37q-8.62,0-13.07-5.6a21.42,21.42,0,0,1-4.11-10.69h51.46q1.15-13.31-2.72-23.14A32,32,0,0,0,145.27,337Zm-18.81,10.59q8.08,0,11.65,4.92,2.34,3.24,3.14,9.2H109a20.39,20.39,0,0,1,3.63-8.38Q117,347.54,126.46,347.55Z"/><polygon class="cls-1" points="241.58 333.57 218.78 333.57 193.93 368.87 193.93 309.13 175.2 309.13 175.06 406.88 193.93 406.88 193.93 371.58 219.32 406.88 243.35 406.88 215.11 370.22 241.58 333.57"/><path class="cls-1" d="M272.94,313.21H254.48v20.36H242v14.25h12.49v28c0,4.39,0,8.31.13,11.78a22.51,22.51,0,0,0,2.85,10.21,17.39,17.39,0,0,0,8.73,7.77,35.36,35.36,0,0,0,13,2.58,71.24,71.24,0,0,0,14.9-1.25V391.54a60.14,60.14,0,0,1-11.88.54q-5.37-.34-7.81-4.21a10.76,10.76,0,0,1-1.39-5.46q-.1-3.44-.1-7.71V347.82h21.18V333.57H272.94Z"/><path class="cls-1" d="M346.79,333.4a30.69,30.69,0,0,0-6.45,1.15,23.61,23.61,0,0,0-5.77,2.55,20.11,20.11,0,0,0-5.84,5.16,26.9,26.9,0,0,0-2,3.12V333.57H310.41v73.31H329V369.41a23.19,23.19,0,0,1,1.15-7.57,16.25,16.25,0,0,1,8.89-9.81,20.23,20.23,0,0,1,7.3-1.86,19,19,0,0,1,7.09.64V333.57A34.4,34.4,0,0,0,346.79,333.4Z"/><path class="cls-1" d="M415.07,370.77a32.78,32.78,0,0,1-1.52,11,15.41,15.41,0,0,1-3.91,6.31,12.54,12.54,0,0,1-5.09,2.89,19.57,19.57,0,0,1-5.09.74q-5.91,0-9.13-2.64a15,15,0,0,1-4.65-6.59A28.78,28.78,0,0,1,384,374.6q-.28-3.9-.28-6.41V333.57H365V374.7c0,1.23.09,3.17.27,5.84a47.21,47.21,0,0,0,1.56,8.86,30.85,30.85,0,0,0,4.31,9.33,23.13,23.13,0,0,0,8.45,7.4q5.43,2.92,14.05,2.92,10.8,0,17.89-4.68a30.22,30.22,0,0,0,5.87-5.06v7.57h16.29V333.57h-18.6Z"/><path class="cls-1" d="M509.69,375a19,19,0,0,0-7.36-6.92A55.55,55.55,0,0,0,488.92,363q-8.55-2.17-12.73-3.53t-5.49-2.65a4.25,4.25,0,0,1-1.33-3.19,5.33,5.33,0,0,1,3.09-4.89,14.86,14.86,0,0,1,8.18-1.35,15.15,15.15,0,0,1,8.28,2.78,9.15,9.15,0,0,1,3.53,6.45l18.87-3.4a22.41,22.41,0,0,0-5.06-11.53,26.56,26.56,0,0,0-10.75-7.54,41.22,41.22,0,0,0-15.28-2.65,38.83,38.83,0,0,0-15.44,2.82,23.08,23.08,0,0,0-10.15,8,21,21,0,0,0-3.59,12.25,18.43,18.43,0,0,0,2.37,9.61,19.21,19.21,0,0,0,7.74,6.82,66.5,66.5,0,0,0,14.32,5.16q7.95,2.1,11.71,3.39T492,382.2a5.33,5.33,0,0,1,1.09,3.5,6.28,6.28,0,0,1-2.71,5.4c-1.82,1.29-4.39,1.93-7.74,1.93a16.52,16.52,0,0,1-10.08-2.92,13.21,13.21,0,0,1-5.13-8.08l-18.87,2.86q1.83,11.46,10.35,17.74t22.37,6.28q14.39,0,22.53-6.44T512,384.75A19.31,19.31,0,0,0,509.69,375Z"/><polygon class="cls-1" points="91.35 306.55 45.42 413.48 0 306.55 20.34 306.55 44.85 364.24 69.7 306.55 91.35 306.55"/><path class="cls-1" d="M203.9,98.8h0a15.55,15.55,0,0,1,14.32,9.47l36.72,86.45,21.94-51.41a15.55,15.55,0,0,1,20.47-8.18l1.69.73a15.55,15.55,0,0,1,8.15,20.38L255.9,276.57,189.58,120.44A15.56,15.56,0,0,1,203.9,98.8Z"/><circle class="cls-2" cx="307.18" cy="115.01" r="16.5"/></svg>