<svg id="Layer_1" data-name="Layer 1" xmlns="http://www.w3.org/2000/svg" viewBox="0 0 2000 2000"><defs><style>.cls-1{fill:#b4e8e5;}.cls-2{fill:#49d69e;}</style></defs><path class="cls-1" d="M824,964.5q-12.48-8.4-30.32-8.4-16.78,0-29.69,7.61a53.38,53.38,0,0,0-20.25,21.35q-7.35,13.76-7.35,32.32,0,17,7.51,30.16a54.06,54.06,0,0,0,20.77,20.67q13.27,7.5,30.69,7.5a56,56,0,0,0,30.16-8.6,50.24,50.24,0,0,0,20.2-24.13l-28.54-8.19a23.43,23.43,0,0,1-9.13,10.6,26.91,26.91,0,0,1-14.37,3.67q-13.33,0-20.2-8.65-5-6.35-6.36-16.53h79.54q1.79-20.57-4.19-35.78T824,964.5Zm-29.06,16.37q12.48,0,18,7.6,3.63,5,4.86,14.22H767.86a31.59,31.59,0,0,1,5.62-13Q780.35,980.87,794.94,980.87Z"/><polygon class="cls-1" points="972.88 959.25 937.62 959.25 899.22 1013.81 899.22 921.48 870.27 921.48 870.06 1072.56 899.22 1072.56 899.22 1018.01 938.46 1072.56 975.6 1072.56 931.96 1015.91 972.88 959.25"/><path class="cls-1" d="M1021.35,927.78H992.81v31.47H973.5v22h19.31v43.23q0,10.18.21,18.2a34.87,34.87,0,0,0,4.4,15.79,26.9,26.9,0,0,0,13.49,12,54.88,54.88,0,0,0,20.14,4,110.31,110.31,0,0,0,23-1.94v-23.71a93.48,93.48,0,0,1-18.36.84q-8.29-.53-12.07-6.5a16.66,16.66,0,0,1-2.15-8.45q-.15-5.29-.15-11.91V981.28h32.73v-22h-32.73Z"/><path class="cls-1" d="M1135.49,959a47.78,47.78,0,0,0-10,1.78,36.77,36.77,0,0,0-8.92,3.94,31,31,0,0,0-9,8,40.77,40.77,0,0,0-3.14,4.83V959.25h-25.18v113.31H1108v-57.91a35.85,35.85,0,0,1,1.78-11.7,25.15,25.15,0,0,1,13.74-15.16,31.45,31.45,0,0,1,11.28-2.89,29.54,29.54,0,0,1,11,1V959.25A53.65,53.65,0,0,0,1135.49,959Z"/><path class="cls-1" d="M1241,1016.75q0,10.49-2.36,16.94a24.07,24.07,0,0,1-6,9.76,19.56,19.56,0,0,1-7.87,4.46,29.72,29.72,0,0,1-7.87,1.15q-9.14,0-14.11-4.09a23.07,23.07,0,0,1-7.19-10.18,44.06,44.06,0,0,1-2.62-12.12q-.42-6-.42-9.91V959.25h-29v63.58q0,2.83.42,9a73,73,0,0,0,2.41,13.69,47.58,47.58,0,0,0,6.66,14.42,35.84,35.84,0,0,0,13.07,11.44q8.38,4.52,21.71,4.51,16.69,0,27.65-7.24a46.38,46.38,0,0,0,9.08-7.82v11.7h25.18V959.25H1241Z"/><path class="cls-1" d="M1387.29,1023.3q-3.57-6.24-11.38-10.7t-20.72-7.81q-13.23-3.36-19.68-5.46t-8.49-4.09a6.59,6.59,0,0,1-2-4.93q0-4.93,4.77-7.56t12.65-2.09q8.07.63,12.8,4.3a14.19,14.19,0,0,1,5.45,10l29.17-5.24a34.8,34.8,0,0,0-7.82-17.84,41,41,0,0,0-16.63-11.64,63.4,63.4,0,0,0-23.6-4.1q-13.76,0-23.87,4.36a35.66,35.66,0,0,0-15.69,12.38,32.39,32.39,0,0,0-5.56,18.94,28.48,28.48,0,0,0,3.67,14.84q3.68,6.14,12,10.55t22.13,8q12.28,3.25,18.1,5.25c3.88,1.33,6.38,2.67,7.5,4a8.23,8.23,0,0,1,1.68,5.4,9.67,9.67,0,0,1-4.19,8.34q-4.2,3-12,3-9.43,0-15.58-4.51a20.46,20.46,0,0,1-7.92-12.49l-29.16,4.41q2.82,17.73,16,27.44t34.57,9.7q22.23,0,34.83-10t12.59-27.38A29.89,29.89,0,0,0,1387.29,1023.3Z"/><path class="cls-1" d="M621.33,917.48h0a14.47,14.47,0,0,1,13.31,8.81l34.14,80.38,20.39-47.8a14.48,14.48,0,0,1,19-7.61l1.57.68a14.47,14.47,0,0,1,7.58,19l-47.69,111.88L608,937.6A14.47,14.47,0,0,1,621.33,917.48Z"/><circle class="cls-2" cx="717.34" cy="932.56" r="15.34"/></svg>