<svg id="Layer_1" data-name="Layer 1" xmlns="http://www.w3.org/2000/svg" viewBox="0 0 2000 2000"><defs><style>.cls-1{fill:#7a7a7a;}.cls-2{fill:none;stroke:#000;stroke-miterlimit:10;stroke-width:1.57px;stroke-dasharray:18.89;}</style></defs><path class="cls-1" d="M819.21,664.81h0a58.62,58.62,0,0,1,53.95,35.7l138.33,325.68,81.27-190.48a62.1,62.1,0,0,1,81.71-32.65h0A62.11,62.11,0,0,1,1207,884.42l-191.87,450.16L765.25,746.34C748.83,707.68,777.21,664.81,819.21,664.81Z"/><circle class="cls-1" cx="1208.28" cy="725.9" r="61.1"/><circle class="cls-2" cx="1208.28" cy="725.9" r="61.1"/><line class="cls-2" x1="676.47" y1="537.41" x2="1069.04" y2="1461.63"/><line class="cls-2" x1="803.72" y1="538.18" x2="1196.28" y2="1462.4"/><line class="cls-2" x1="1353.75" y1="537.59" x2="961.18" y2="1461.81"/><line class="cls-2" x1="1219.58" y1="538.37" x2="827.02" y2="1462.59"/><rect class="cls-2" x="537.89" y="537.59" width="924.22" height="924.22"/><line class="cls-2" x1="535.85" y1="664.81" x2="1460.07" y2="664.81"/></svg>