<svg id="Layer_1" data-name="Layer 1" xmlns="http://www.w3.org/2000/svg" viewBox="0 0 2000 2000"><path d="M846.93,1111.92q-11.17-7.5-27.12-7.51-15,0-26.55,6.81a47.76,47.76,0,0,0-18.11,19.09q-6.57,12.3-6.57,28.9a53.58,53.58,0,0,0,6.71,27,48.3,48.3,0,0,0,18.58,18.48q11.86,6.7,27.44,6.71a50,50,0,0,0,27-7.7,44.84,44.84,0,0,0,18.06-21.58l-25.52-7.32a21,21,0,0,1-8.16,9.48,24.11,24.11,0,0,1-12.86,3.29q-11.91,0-18.06-7.75c-3-3.77-4.89-8.71-5.69-14.77H867.2q1.59-18.39-3.76-32A44.05,44.05,0,0,0,846.93,1111.92Zm-26,14.64q11.16,0,16.09,6.8c2.16,3,3.61,7.23,4.34,12.71H796.72a28.37,28.37,0,0,1,5-11.58Q807.9,1126.56,820.94,1126.56Z"/><polygon points="980.07 1107.23 948.54 1107.23 914.2 1156.02 914.2 1073.45 888.31 1073.45 888.12 1208.56 914.2 1208.56 914.2 1159.77 949.3 1208.56 982.51 1208.56 943.48 1157.9 980.07 1107.23"/><path d="M1023.42,1079.08H997.9v28.15H980.63v19.7H997.9v38.66q0,9.11.18,16.28A31.14,31.14,0,0,0,1002,1196a24.08,24.08,0,0,0,12.05,10.74,49.25,49.25,0,0,0,18,3.57,99,99,0,0,0,20.59-1.74v-21.2a84.12,84.12,0,0,1-16.42.75q-7.41-.46-10.79-5.82a14.78,14.78,0,0,1-1.92-7.55c-.1-3.16-.14-6.71-.14-10.65v-37.16h29.27v-19.7h-29.27Z"/><path d="M1125.5,1107a41.91,41.91,0,0,0-8.91,1.6,32.59,32.59,0,0,0-8,3.52,27.51,27.51,0,0,0-8.07,7.13,36.21,36.21,0,0,0-2.81,4.31v-16.32h-22.52v101.33h25.71v-51.79a32.14,32.14,0,0,1,1.59-10.46,22.48,22.48,0,0,1,12.3-13.56,27.93,27.93,0,0,1,10.08-2.58,26.29,26.29,0,0,1,9.81.89v-23.83A47.18,47.18,0,0,0,1125.5,1107Z"/><path d="M1219.89,1158.65q0,9.38-2.11,15.15a21.51,21.51,0,0,1-5.39,8.73,17.31,17.31,0,0,1-7,4,26.56,26.56,0,0,1-7,1q-8.16,0-12.62-3.66a20.76,20.76,0,0,1-6.43-9.11,39.84,39.84,0,0,1-2.34-10.83c-.25-3.6-.38-6.55-.38-8.87v-47.85h-25.89v56.86q0,2.54.37,8.07a65.11,65.11,0,0,0,2.16,12.24,42.27,42.27,0,0,0,6,12.9,31.92,31.92,0,0,0,11.68,10.23q7.5,4,19.42,4,14.92,0,24.73-6.48a41.54,41.54,0,0,0,8.11-7v10.46h22.52V1107.23h-25.71Z"/><path d="M1350.69,1164.51a26.35,26.35,0,0,0-10.18-9.57q-7-4-18.53-7-11.84-3-17.6-4.88c-3.84-1.25-6.38-2.47-7.6-3.66A5.92,5.92,0,0,1,1295,1135c0-2.94,1.43-5.19,4.27-6.75s6.62-2.19,11.31-1.88,8.63,1.66,11.45,3.85a12.69,12.69,0,0,1,4.88,8.91l26.08-4.69a31.15,31.15,0,0,0-7-16,36.71,36.71,0,0,0-14.87-10.42,56.77,56.77,0,0,0-21.11-3.66q-12.3,0-21.35,3.9a31.81,31.81,0,0,0-14,11.07,29,29,0,0,0-5,16.93,25.39,25.39,0,0,0,3.28,13.28q3.28,5.49,10.7,9.43t19.8,7.13q11,2.91,16.18,4.69c3.48,1.19,5.71,2.4,6.71,3.62a7.38,7.38,0,0,1,1.5,4.83,8.64,8.64,0,0,1-3.75,7.46q-3.75,2.67-10.7,2.67-8.44,0-13.93-4a18.26,18.26,0,0,1-7.08-11.17l-26.09,3.94q2.54,15.85,14.31,24.54t30.92,8.68q19.89,0,31.15-8.92t11.26-24.48A26.79,26.79,0,0,0,1350.69,1164.51Z"/><polygon points="772.4 1069.87 708.91 1217.69 646.12 1069.87 674.24 1069.87 708.12 1149.63 742.47 1069.87 772.4 1069.87"/><path d="M928,782.69h0a21.51,21.51,0,0,1,19.8,13.1l50.76,119.5,30.32-71.07a21.5,21.5,0,0,1,28.3-11.31l2.34,1a21.5,21.5,0,0,1,11.26,28.18l-70.89,166.34L908.19,812.61A21.51,21.51,0,0,1,928,782.69Z"/><circle cx="1070.74" cy="805.11" r="22.8"/></svg>